<svg width="23" height="25" viewBox="0 0 23 25" fill="none" xmlns="http://www.w3.org/2000/svg">
<path d="M21.5745 11.6147L21.5847 11.6476L21.5993 11.6788C21.7113 11.9178 21.775 12.1735 21.775 12.4417C21.775 13.0052 21.5097 13.508 21.0922 13.8449L20.663 14.1914L21.0498 14.5846C21.3745 14.9148 21.5736 15.363 21.5736 15.8562C21.5736 16.5319 21.1955 17.1203 20.6323 17.4341L20.1268 17.7157L20.4789 18.175C20.7168 18.4854 20.859 18.8622 20.859 19.2701C20.859 19.9447 20.482 20.5326 19.9204 20.847L19.4163 21.1292L19.7678 21.5876C20.0066 21.899 20.1493 22.2757 20.1493 22.6847C20.1493 23.6852 19.3348 24.5 18.3347 24.5H5.80417C5.21908 24.5 4.83203 24.4277 4.55478 24.3314C4.28212 24.2367 4.09024 24.1102 3.89731 23.9614C3.84756 23.923 3.7972 23.8824 3.74526 23.8405C3.37201 23.5398 2.91667 23.173 2.01145 23.0712C1.24436 22.9849 0.932419 22.7021 0.770126 22.3901C0.578587 22.022 0.540283 21.5156 0.540283 20.8701V13.4264C0.540283 12.6977 0.72089 12.3397 0.936208 12.1195C1.17683 11.8735 1.52678 11.7245 2.04198 11.5408C2.08953 11.5239 2.13795 11.5068 2.18715 11.4894C3.17588 11.1407 4.47616 10.682 5.26999 8.93073L4.81459 8.7243L5.26999 8.93072C6.66314 5.85717 6.63703 3.66042 6.62033 2.25555C6.61993 2.22167 6.61953 2.18825 6.61916 2.1553C6.61522 1.80593 6.61499 1.53703 6.6368 1.31773C6.65863 1.09814 6.69871 0.979128 6.74151 0.909566C6.79469 0.823132 6.94205 0.667358 7.69515 0.667358C8.38036 0.667358 9.0009 1.15438 9.44857 1.96873C9.89226 2.77585 10.0867 3.77668 9.98439 4.53218L9.98439 4.53222C9.89512 5.19154 9.79169 5.76204 9.70126 6.25436C9.69649 6.2803 9.69175 6.30609 9.68704 6.33172C9.60391 6.78382 9.52976 7.18706 9.49699 7.51658C9.46457 7.84257 9.4561 8.21747 9.61645 8.52139C9.81598 8.89956 10.1838 9.02672 10.5479 9.03528C11.1255 9.04892 11.6844 9.05945 12.224 9.0696C14.6113 9.11455 16.6202 9.15237 18.1979 9.42227C20.1271 9.75229 21.1957 10.3927 21.5745 11.6147Z" fill="#E6E6E6" stroke="#626262"/>
</svg>
