<svg width="100" height="12" viewBox="0 0 100 12" fill="none" xmlns="http://www.w3.org/2000/svg">
<g clip-path="url(#clip0_5421_27821)">
<path d="M10.2628 2.91747C11.0007 3.86718 11.6126 4.93432 12.0867 6.08471V0H6.88251C8.13429 0.671544 9.2812 1.65394 10.2628 2.91747Z" fill="#058FCF"/>
<path d="M2.76005 0.648438C1.79589 0.648438 0.868529 0.85311 0 1.23169V12.0004H11.5548C11.4653 5.72 7.55446 0.648438 2.76005 0.648438Z" fill="#058FCF"/>
<path d="M18.9917 10.1454L25.4478 2.38516H19.1946V0.693359H27.949V2.10566L21.4927 9.8662H27.949V11.5579H18.9917V10.1454Z" fill="#058FCF"/>
<path d="M30.3562 0.693359H38.4542V2.41607H32.2635V5.20976H37.751V6.93276H32.2635V9.83485H38.5321V11.5577H30.3562V0.693359Z" fill="#058FCF"/>
<path d="M45.5603 6.07887C46.2498 6.07887 46.7989 5.91576 47.2065 5.58819C47.6142 5.26063 47.8181 4.81638 47.8181 4.25531V4.22425C47.8181 3.63198 47.6191 3.18241 47.2217 2.87569C46.8248 2.56928 46.2655 2.41592 45.544 2.41592H42.7371V6.07887H45.5603ZM40.8303 0.693359H45.7077C46.3955 0.693359 47.0052 0.789189 47.5368 0.980551C48.0679 1.17191 48.511 1.43825 48.8652 1.77987C49.1569 2.08007 49.3815 2.42657 49.5379 2.81964C49.6942 3.21302 49.7721 3.64765 49.7721 4.1234V4.15445C49.7721 4.59944 49.7068 5.00035 49.5768 5.35735C49.4463 5.71449 49.2664 6.03007 49.0373 6.3041C48.8081 6.57828 48.5346 6.8112 48.2166 7.00227C47.8986 7.19407 47.547 7.34151 47.1616 7.44489L50.116 11.5579H47.8491L45.1521 7.77068H42.7371V11.5579H40.8298V0.693359H40.8303Z" fill="#058FCF"/>
<path d="M57.3852 9.99009C57.9247 9.99009 58.4204 9.88938 58.8716 9.68766C59.3231 9.48565 59.7096 9.21192 60.0315 8.86528C60.3526 8.51849 60.6046 8.11225 60.7865 7.64656C60.9679 7.18102 61.0588 6.68442 61.0588 6.15692V6.12571C61.0588 5.59806 60.9679 5.0988 60.7865 4.62779C60.6046 4.15707 60.3499 3.74862 60.0234 3.40183C59.6966 3.05533 59.3047 2.77849 58.8479 2.57131C58.3914 2.36456 57.8934 2.26104 57.3535 2.26104C56.814 2.26104 56.3186 2.36175 55.8676 2.56362C55.4156 2.76533 55.0294 3.03966 54.7075 3.3863C54.3858 3.73309 54.1341 4.13903 53.9522 4.60457C53.7706 5.07026 53.6799 5.56686 53.6799 6.09451V6.12571C53.6799 6.65337 53.7706 7.15262 53.9522 7.62319C54.1341 8.0945 54.3888 8.50311 54.7156 8.8496C55.0424 9.19639 55.434 9.47308 55.8908 9.67982C56.3476 9.88686 56.8456 9.99009 57.3852 9.99009ZM57.3539 11.744C56.5097 11.744 55.7387 11.5967 55.0404 11.302C54.3423 11.0071 53.7429 10.6062 53.2426 10.0988C52.7423 9.59198 52.3519 8.99985 52.0704 8.32195C51.7887 7.64434 51.6479 6.92237 51.6479 6.15662V6.12557C51.6479 5.35982 51.7887 4.63829 52.0704 3.96039C52.3519 3.28278 52.7472 2.68754 53.2585 2.17527C53.7689 1.66315 54.3731 1.25705 55.0722 0.956997C55.7698 0.657087 56.541 0.506836 57.3855 0.506836C58.2293 0.506836 59.0007 0.654277 59.699 0.949159C60.3971 1.24404 60.9965 1.6451 61.4968 2.15205C61.9967 2.65915 62.3876 3.25157 62.6691 3.92918C62.9507 4.60694 63.0915 5.32862 63.0915 6.09421V6.12542C63.0915 6.89116 62.9507 7.61314 62.6691 8.2906C62.3876 8.96835 61.9918 9.56329 61.4812 10.0754C60.9703 10.5874 60.3659 10.9938 59.6677 11.2938C58.9692 11.5936 58.1982 11.744 57.3539 11.744Z" fill="#058FCF"/>
<path d="M69.4853 9.835C70.058 9.835 70.5796 9.74434 71.0482 9.56245C71.5172 9.38025 71.9161 9.12633 72.244 8.79907C72.5722 8.4715 72.8274 8.08168 73.01 7.62959C73.1923 7.17766 73.2842 6.68683 73.2842 6.15666V6.12561C73.2842 5.59559 73.1923 5.10224 73.01 4.64499C72.8274 4.18773 72.5722 3.79568 72.244 3.46841C71.9161 3.1407 71.5172 2.88368 71.0482 2.6966C70.5796 2.50953 70.058 2.41592 69.4853 2.41592H67.3274V9.83485H69.4853V9.835ZM65.4204 0.693359H69.5009C70.3553 0.693359 71.1393 0.830596 71.8536 1.10477C72.5678 1.3788 73.182 1.75916 73.6979 2.24541C74.2143 2.7318 74.6123 3.30367 74.8941 3.96072C75.1754 4.61777 75.3162 5.32925 75.3162 6.09485V6.1259C75.3162 6.8918 75.1754 7.60578 74.8941 8.26772C74.6123 8.92965 74.2143 9.50447 73.6979 9.99057C73.182 10.4773 72.5678 10.8598 71.8536 11.139C71.1393 11.4184 70.3553 11.558 69.5009 11.558H65.4204V0.693359Z" fill="#058FCF"/>
<path d="M77.6453 0.693359H79.5526V5.2099H84.8054V0.693359H86.7128V11.558H84.8054V6.97934H79.5526V11.5579H77.6453V0.693359Z" fill="#058FCF"/>
<path d="M96.1545 7.24298L94.2627 2.89695L92.3866 7.24298H96.1545ZM93.4029 0.615234H95.1851L99.9999 11.5574H97.9679L96.8575 8.93449H91.6831L90.5575 11.5574H88.5876L93.4029 0.615234Z" fill="#058FCF"/>
</g>
<defs>
<clipPath id="clip0_5421_27821">
<rect width="100" height="12" fill="white"/>
</clipPath>
</defs>
</svg>
